<?xml version="1.0" encoding="UTF-8"?>
<svg xmlns="http://www.w3.org/2000/svg" xmlns:xlink="http://www.w3.org/1999/xlink" width="365pt" height="129.32pt" viewBox="0 0 365 129.32" version="1.1">
<defs>
<clipPath id="clip1">
  <path d="M 53 116 L 71 116 L 71 129.320313 L 53 129.320313 Z M 53 116 "/>
</clipPath>
</defs>
<g id="surface1">
<path style=" stroke:none;fill-rule:nonzero;fill:rgb(66.299438%,11.799622%,13.299561%);fill-opacity:1;" d="M 27.496094 2.429688 C 29.363281 0.316406 32.410156 0.0820313 35.050781 0.00390625 C 37.09375 0.148438 39.160156 0.253906 41.148438 0.769531 C 41.792969 1.050781 42.742188 1.296875 42.773438 2.148438 C 42.117188 3.5 40.519531 3.847656 39.335938 4.582031 C 34.972656 7.164063 30.503906 9.671875 26.65625 13 C 26.710938 11.492188 26.488281 9.996094 26.566406 8.488281 C 26.609375 6.464844 26.019531 4.097656 27.496094 2.429688 "/>
<path style=" stroke:none;fill-rule:nonzero;fill:rgb(66.299438%,11.799622%,13.299561%);fill-opacity:1;" d="M 46.558594 4.585938 C 50.257813 2.519531 54.789063 3.828125 58.105469 6.035156 C 58.984375 6.589844 59.761719 7.832031 58.972656 8.777344 C 57.878906 10.050781 56.261719 10.753906 54.675781 11.183594 C 44.554688 14.070313 35.023438 18.945313 26.699219 25.378906 C 26.683594 23.757813 26.679688 22.132813 26.703125 20.511719 C 32.421875 14.183594 39.4375 9.207031 46.558594 4.585938 "/>
<path style=" stroke:none;fill-rule:nonzero;fill:rgb(66.299438%,11.799622%,13.299561%);fill-opacity:1;" d="M 63.1875 10.183594 C 65.261719 9.425781 67.578125 10.296875 69.222656 11.617188 C 70.414063 12.554688 71.746094 13.308594 72.867188 14.335938 C 73.667969 15.082031 74.300781 16.351563 73.601563 17.375 C 72.480469 18.988281 70.425781 19.441406 68.660156 20.003906 C 53.855469 24.875 39.21875 30.96875 26.601563 40.269531 C 26.492188 38.671875 26.492188 37.066406 26.304688 35.476563 C 33.144531 27.660156 41.839844 21.75 50.8125 16.648438 C 54.859375 14.347656 59.035156 12.28125 63.1875 10.183594 "/>
<path style=" stroke:none;fill-rule:nonzero;fill:rgb(66.299438%,11.799622%,13.299561%);fill-opacity:1;" d="M 75.726563 20.363281 C 77.542969 19.625 79.890625 19.558594 81.421875 20.9375 C 82.679688 22.210938 84.015625 23.414063 85.289063 24.667969 C 86.097656 25.601563 87 26.894531 86.457031 28.175781 C 85.800781 29.726563 84.09375 30.429688 82.636719 31.019531 C 70.179688 34.832031 57.75 38.929688 46.019531 44.648438 C 39.167969 47.976563 32.578125 51.878906 26.574219 56.566406 C 26.582031 55.117188 26.507813 53.671875 26.480469 52.222656 C 32.78125 44.410156 41.054688 38.46875 49.605469 33.347656 C 57.976563 28.378906 66.796875 24.214844 75.726563 20.363281 "/>
<path style=" stroke:none;fill-rule:nonzero;fill:rgb(66.299438%,11.799622%,13.299561%);fill-opacity:1;" d="M 85.265625 33.253906 C 86.671875 32.617188 88.179688 31.839844 89.769531 32.214844 C 91.714844 32.660156 93.050781 34.332031 93.917969 36.027344 C 94.984375 38.085938 96.734375 40.003906 96.652344 42.464844 C 96.652344 44.292969 95.230469 45.742188 93.722656 46.582031 C 90.589844 48.3125 86.988281 48.804688 83.507813 49.339844 C 63.148438 52.835938 43.476563 60.804688 26.765625 72.996094 C 26.777344 71.332031 26.574219 69.671875 26.566406 68.011719 C 33.203125 60.917969 41.113281 55.140625 49.386719 50.109375 C 60.722656 43.265625 72.863281 37.84375 85.265625 33.253906 "/>
<path style=" stroke:none;fill-rule:nonzero;fill:rgb(66.299438%,11.799622%,13.299561%);fill-opacity:1;" d="M 69.855469 56.394531 C 70.050781 58.03125 69.945313 59.6875 70.089844 61.328125 C 62.96875 68.972656 54.363281 75.078125 45.398438 80.371094 C 34.675781 86.628906 23.296875 91.707031 11.65625 96.003906 C 10.394531 96.511719 9.160156 97.285156 7.742188 97.203125 C 5.480469 97.257813 3.765625 95.359375 2.828125 93.488281 C 1.691406 91.332031 -0.152344 89.292969 0.0117188 86.703125 C 0.105469 84.859375 1.609375 83.5 3.125 82.675781 C 6.148438 81.085938 9.578125 80.574219 12.914063 80.058594 C 33.339844 76.597656 53.089844 68.621094 69.855469 56.394531 "/>
<path style=" stroke:none;fill-rule:nonzero;fill:rgb(66.299438%,11.799622%,13.299561%);fill-opacity:1;" d="M 86.269531 60.304688 C 89.015625 58.269531 92.613281 57.753906 95.949219 58.070313 C 97.453125 58.125 98.941406 58.441406 100.378906 58.898438 C 102.335938 59.496094 104.378906 59.980469 106.101563 61.132813 C 106.085938 64.011719 106.085938 66.890625 106.101563 69.773438 C 104.449219 68.445313 102.546875 67.460938 100.585938 66.679688 C 98.722656 65.988281 96.640625 65.414063 94.683594 66.042969 C 93.664063 66.351563 92.761719 67.367188 93.09375 68.488281 C 93.546875 69.636719 94.691406 70.289063 95.726563 70.855469 C 98.613281 72.207031 101.523438 73.632813 104.015625 75.65625 C 105.859375 77.125 106.71875 79.539063 106.65625 81.851563 C 106.75 84.410156 105.691406 87.027344 103.6875 88.65625 C 101.199219 90.703125 97.929688 91.609375 94.753906 91.667969 C 90.460938 91.828125 86.152344 90.820313 82.28125 88.984375 C 82.304688 86.070313 82.296875 83.152344 82.285156 80.238281 C 84.539063 81.710938 87.003906 82.878906 89.597656 83.613281 C 91.375 84.152344 93.382813 83.960938 94.976563 82.984375 C 95.539063 82.660156 95.675781 81.988281 95.851563 81.421875 C 95.351563 80.027344 93.863281 79.441406 92.636719 78.84375 C 89.976563 77.753906 87.355469 76.40625 85.265625 74.402344 C 81.351563 70.675781 81.878906 63.445313 86.269531 60.304688 "/>
<path style=" stroke:none;fill-rule:nonzero;fill:rgb(66.299438%,11.799622%,13.299561%);fill-opacity:1;" d="M 123.976563 68.984375 C 119.351563 70.558594 118.390625 77.359375 121.808594 80.582031 C 124.066406 82.886719 128.203125 82.878906 130.4375 80.550781 C 131.875 79.179688 132.519531 77.140625 132.382813 75.183594 C 132.476563 72.761719 131.074219 70.375 128.925781 69.261719 C 127.394531 68.527344 125.582031 68.417969 123.976563 68.984375 Z M 123.324219 59.769531 C 127.269531 59.308594 131.421875 59.769531 134.953125 61.683594 C 139.007813 63.886719 142.21875 67.84375 142.960938 72.464844 C 143.394531 75.800781 143.257813 79.359375 141.683594 82.402344 C 139.382813 87.035156 134.679688 90.269531 129.609375 91.109375 C 125.402344 91.785156 120.890625 91.3125 117.144531 89.179688 C 113.632813 87.179688 110.71875 83.925781 109.601563 79.996094 C 108.460938 75.808594 108.886719 71.09375 111.21875 67.375 C 113.816406 63.15625 118.4375 60.378906 123.324219 59.769531 "/>
<path style=" stroke:none;fill-rule:nonzero;fill:rgb(66.299438%,11.799622%,13.299561%);fill-opacity:1;" d="M 183.1875 60.042969 C 193.996094 60.046875 204.800781 60.039063 215.605469 60.046875 C 215.601563 62.734375 215.59375 65.414063 215.613281 68.101563 C 212.007813 68.082031 208.40625 68.09375 204.804688 68.09375 C 204.808594 75.730469 204.808594 83.367188 204.804688 91.003906 C 201.175781 91.003906 197.546875 91.003906 193.914063 91.003906 C 193.914063 83.367188 193.914063 75.730469 193.914063 68.09375 C 190.335938 68.089844 186.753906 68.09375 183.175781 68.089844 C 183.203125 65.40625 183.179688 62.726563 183.1875 60.042969 "/>
<path style=" stroke:none;fill-rule:nonzero;fill:rgb(66.299438%,11.799622%,13.299561%);fill-opacity:1;" d="M 219.566406 60.042969 C 223.070313 60.042969 226.578125 60.042969 230.085938 60.046875 C 230.082031 63.84375 230.082031 67.648438 230.085938 71.449219 C 234.277344 71.453125 238.46875 71.449219 242.660156 71.449219 C 242.664063 67.648438 242.664063 63.847656 242.664063 60.046875 C 246.175781 60.042969 249.6875 60.042969 253.199219 60.046875 C 253.191406 70.449219 253.1875 80.847656 253.199219 91.246094 C 249.6875 91.25 246.175781 91.25 242.664063 91.246094 C 242.664063 87.410156 242.664063 83.570313 242.664063 79.734375 C 238.472656 79.722656 234.277344 79.734375 230.085938 79.726563 C 230.085938 83.570313 230.082031 87.410156 230.085938 91.25 C 226.578125 91.25 223.070313 91.25 219.566406 91.246094 C 219.570313 80.847656 219.570313 70.445313 219.566406 60.042969 "/>
<path style=" stroke:none;fill-rule:nonzero;fill:rgb(66.299438%,11.799622%,13.299561%);fill-opacity:1;" d="M 146.503906 60.347656 C 150.074219 60.34375 153.644531 60.351563 157.214844 60.34375 C 157.207031 65.496094 157.214844 70.652344 157.214844 75.800781 C 157.199219 77.34375 157.121094 78.957031 157.777344 80.398438 C 158.351563 81.773438 159.648438 82.800781 161.121094 83.042969 C 162.863281 83.378906 164.851563 83.28125 166.324219 82.199219 C 167.816406 81.066406 168.285156 79.089844 168.335938 77.304688 C 168.328125 71.652344 168.335938 66 168.332031 60.347656 C 171.902344 60.34375 175.472656 60.351563 179.042969 60.34375 C 179.035156 64.894531 179.039063 69.441406 179.039063 73.988281 C 179.074219 77.261719 179.167969 80.65625 177.863281 83.730469 C 176.648438 86.859375 173.929688 89.242188 170.78125 90.324219 C 166.675781 91.726563 162.214844 91.8125 157.957031 91.164063 C 154.664063 90.613281 151.328125 89.191406 149.246094 86.480469 C 147.09375 83.734375 146.410156 80.125 146.503906 76.707031 C 146.507813 71.253906 146.503906 65.800781 146.503906 60.347656 "/>
<path style=" stroke:none;fill-rule:nonzero;fill:rgb(66.299438%,11.799622%,13.299561%);fill-opacity:1;" d="M 50.699219 84.691406 C 57.492188 81.371094 64.0625 77.519531 70.011719 72.832031 C 69.992188 74.285156 70.210938 75.761719 70.140625 77.191406 C 65.214844 83.324219 58.988281 88.265625 52.480469 92.617188 C 42.847656 98.96875 32.421875 104.003906 21.863281 108.613281 C 19.996094 109.566406 17.609375 109.957031 15.722656 108.828125 C 14.625 107.894531 13.640625 106.832031 12.574219 105.863281 C 11.714844 105.085938 10.855469 104.257813 10.328125 103.214844 C 9.828125 102.207031 10.054688 100.921875 10.882813 100.15625 C 12.3125 98.804688 14.253906 98.230469 16.097656 97.703125 C 27.875 94.074219 39.597656 90.09375 50.699219 84.691406 "/>
<path style=" stroke:none;fill-rule:nonzero;fill:rgb(66.299438%,11.799622%,13.299561%);fill-opacity:1;" d="M 28.941406 109.0625 C 43.394531 104.21875 57.699219 98.230469 70.023438 89.109375 C 70.054688 90.714844 70.382813 92.316406 70.28125 93.917969 C 66.054688 98.859375 60.953125 102.988281 55.609375 106.664063 C 49.042969 111.148438 42.035156 114.945313 34.902344 118.433594 C 33.941406 119.023438 32.878906 119.5625 31.71875 119.503906 C 30.210938 119.355469 28.726563 118.8125 27.546875 117.847656 C 26.191406 116.75 24.59375 115.925781 23.425781 114.609375 C 22.605469 113.773438 22.558594 112.285156 23.453125 111.488281 C 24.921875 110.027344 27.066406 109.738281 28.941406 109.0625 "/>
<path style=" stroke:none;fill-rule:nonzero;fill:rgb(66.299438%,11.799622%,13.299561%);fill-opacity:1;" d="M 82.234375 94.90625 C 85.621094 94.90625 89.007813 94.90625 92.394531 94.910156 C 92.394531 104.90625 92.394531 114.902344 92.394531 124.898438 C 89.007813 124.902344 85.621094 124.898438 82.234375 124.902344 C 82.238281 114.902344 82.238281 104.90625 82.234375 94.90625 "/>
<path style=" stroke:none;fill-rule:nonzero;fill:rgb(66.299438%,11.799622%,13.299561%);fill-opacity:1;" d="M 97.808594 94.902344 C 100.960938 94.914063 104.113281 94.90625 107.265625 94.90625 C 111.742188 99.898438 116.199219 104.90625 120.714844 109.859375 C 120.765625 104.875 120.726563 99.890625 120.738281 94.90625 C 124.164063 94.910156 127.597656 94.902344 131.027344 94.910156 C 131.019531 104.90625 131.019531 114.902344 131.027344 124.898438 C 127.867188 124.859375 124.691406 124.984375 121.542969 124.835938 C 117.066406 119.917969 112.703125 114.890625 108.15625 110.035156 C 108.164063 114.992188 108.15625 119.945313 108.160156 124.898438 C 104.710938 124.902344 101.257813 124.894531 97.808594 124.902344 C 97.816406 114.902344 97.816406 104.90625 97.808594 94.902344 "/>
<path style=" stroke:none;fill-rule:nonzero;fill:rgb(66.299438%,11.799622%,13.299561%);fill-opacity:1;" d="M 146.054688 102.582031 C 146.054688 107.464844 146.054688 112.34375 146.054688 117.226563 C 147.460938 117.21875 148.867188 117.234375 150.273438 117.226563 C 152.421875 117.1875 154.511719 116.074219 155.695313 114.273438 C 156.910156 112.542969 157.050781 110.320313 156.78125 108.28125 C 156.382813 105.933594 154.710938 103.808594 152.445313 103.003906 C 150.390625 102.292969 148.183594 102.679688 146.054688 102.582031 Z M 135.820313 94.910156 C 141.527344 94.988281 147.246094 94.722656 152.9375 95.082031 C 157.015625 95.359375 160.957031 97.199219 163.730469 100.210938 C 166.261719 102.796875 167.488281 106.46875 167.335938 110.050781 C 167.4375 113.613281 166.113281 117.214844 163.585938 119.746094 C 160.847656 122.699219 156.9375 124.4375 152.945313 124.722656 C 147.246094 125.085938 141.527344 124.820313 135.820313 124.898438 C 135.828125 114.902344 135.828125 104.90625 135.820313 94.910156 "/>
<path style=" stroke:none;fill-rule:nonzero;fill:rgb(66.299438%,11.799622%,13.299561%);fill-opacity:1;" d="M 170.453125 94.90625 C 173.824219 94.90625 177.191406 94.914063 180.558594 94.902344 C 180.554688 104.90625 180.554688 114.902344 180.558594 124.902344 C 177.191406 124.894531 173.824219 124.902344 170.453125 124.902344 C 170.457031 114.902344 170.457031 104.90625 170.453125 94.90625 "/>
<path style=" stroke:none;fill-rule:nonzero;fill:rgb(66.299438%,11.799622%,13.299561%);fill-opacity:1;" d="M 200.40625 103.007813 C 199.101563 106.207031 197.96875 109.480469 196.636719 112.667969 C 199.09375 112.820313 201.558594 112.695313 204.019531 112.730469 C 202.832031 109.484375 201.628906 106.242188 200.40625 103.007813 Z M 194.511719 94.910156 C 198.519531 94.914063 202.523438 94.886719 206.53125 94.925781 C 210.257813 104.929688 214.0625 114.902344 217.800781 124.902344 C 214.691406 124.878906 211.574219 124.933594 208.464844 124.878906 L 208.289063 124.773438 C 207.664063 123.109375 207.089844 121.429688 206.496094 119.757813 C 202.375 119.730469 198.25 119.757813 194.128906 119.742188 C 193.519531 121.433594 192.882813 123.113281 192.238281 124.789063 C 191.816406 125.007813 191.304688 124.863281 190.855469 124.90625 C 188.109375 124.898438 185.367188 124.890625 182.621094 124.914063 C 186.597656 114.917969 190.566406 104.917969 194.511719 94.910156 "/>
<path style=" stroke:none;fill-rule:nonzero;fill:rgb(66.299438%,11.799622%,13.299561%);fill-opacity:1;" d="M 219.792969 94.914063 C 222.953125 94.914063 226.121094 94.882813 229.28125 94.929688 C 233.734375 99.96875 238.289063 104.921875 242.734375 109.96875 C 242.699219 104.945313 242.734375 99.925781 242.71875 94.902344 C 246.167969 94.914063 249.617188 94.902344 253.066406 94.910156 C 253.066406 104.90625 253.066406 114.902344 253.066406 124.898438 C 249.921875 124.902344 246.773438 124.890625 243.628906 124.90625 C 239.082031 119.960938 234.652344 114.910156 230.125 109.949219 C 230.03125 114.929688 230.109375 119.917969 230.085938 124.902344 C 226.65625 124.898438 223.226563 124.902344 219.796875 124.898438 C 219.804688 114.902344 219.804688 104.90625 219.792969 94.914063 "/>
<path style=" stroke:none;fill-rule:nonzero;fill:rgb(66.299438%,11.799622%,13.299561%);fill-opacity:1;" d="M 274.839844 112.167969 C 274.839844 114.558594 274.832031 116.957031 274.839844 119.347656 C 277.054688 119.335938 279.273438 119.371094 281.488281 119.335938 C 282.679688 119.210938 284.066406 118.957031 284.789063 117.890625 C 285.46875 116.714844 285.460938 115.183594 284.871094 113.96875 C 284.144531 112.691406 282.589844 112.226563 281.203125 112.183594 C 279.082031 112.140625 276.960938 112.179688 274.839844 112.167969 Z M 274.835938 100.226563 C 274.839844 102.394531 274.835938 104.5625 274.839844 106.730469 C 276.664063 106.722656 278.488281 106.746094 280.316406 106.722656 C 281.472656 106.734375 282.785156 106.265625 283.285156 105.144531 C 284.011719 103.476563 283.433594 100.992188 281.484375 100.496094 C 279.304688 99.992188 277.046875 100.316406 274.835938 100.226563 M 268.128906 94.910156 C 271.476563 94.902344 274.824219 94.910156 278.171875 94.902344 C 281.121094 95.050781 284.285156 95.144531 286.835938 96.84375 C 290.085938 98.886719 290.722656 103.910156 288.28125 106.8125 C 287.679688 107.523438 286.886719 108.039063 286.0625 108.457031 C 288.199219 109.242188 290.324219 110.585938 291.210938 112.785156 C 292.242188 115.410156 292.105469 118.566406 290.648438 121.007813 C 289.160156 123.390625 286.277344 124.359375 283.621094 124.6875 C 278.46875 125.105469 273.292969 124.8125 268.128906 124.898438 C 268.128906 114.902344 268.128906 104.90625 268.128906 94.910156 "/>
<path style=" stroke:none;fill-rule:nonzero;fill:rgb(66.299438%,11.799622%,13.299561%);fill-opacity:1;" d="M 343.558594 94.910156 C 345.648438 94.90625 347.742188 94.90625 349.832031 94.90625 C 349.828125 104.722656 349.832031 114.539063 349.832031 124.355469 C 347.742188 124.347656 345.648438 124.347656 343.558594 124.355469 C 343.558594 114.539063 343.5625 104.722656 343.558594 94.910156 "/>
<path style=" stroke:none;fill-rule:nonzero;fill:rgb(66.299438%,11.799622%,13.299561%);fill-opacity:1;" d="M 302.175781 117.074219 C 301.273438 118.167969 301.3125 120.316406 302.835938 120.816406 C 304.296875 121.179688 305.761719 120.515625 306.996094 119.789063 C 306.96875 118.066406 307.027344 116.335938 306.957031 114.613281 C 305.285156 115.238281 303.359375 115.632813 302.175781 117.074219 Z M 296.265625 106.1875 C 299.6875 104.390625 303.671875 103.570313 307.519531 104.066406 C 309.316406 104.324219 311.277344 105.015625 312.191406 106.710938 C 313.511719 108.910156 313.070313 111.5625 313.152344 114 C 313.207031 115.953125 313.035156 117.917969 313.234375 119.859375 C 313.84375 120.742188 315.0625 120.085938 315.867188 119.847656 C 315.863281 120.90625 315.945313 121.957031 315.953125 123.015625 C 314 123.941406 311.894531 125.007813 309.667969 124.65625 C 308.492188 124.457031 307.695313 123.433594 307.335938 122.359375 C 305.515625 123.808594 303.214844 124.535156 300.90625 124.609375 C 299.316406 124.5625 297.617188 124.1875 296.472656 123.007813 C 294.875 121.300781 294.652344 118.363281 296.167969 116.535156 C 297.394531 115.007813 299.234375 114.15625 301.015625 113.449219 C 302.988281 112.679688 305.050781 112.167969 307.089844 111.605469 C 307.160156 110.613281 306.910156 109.507813 306.09375 108.867188 C 304.921875 107.9375 303.308594 107.835938 301.886719 108.09375 C 299.800781 108.507813 297.867188 109.539063 296.246094 110.898438 C 296.28125 109.328125 296.257813 107.757813 296.265625 106.1875 "/>
<path style=" stroke:none;fill-rule:nonzero;fill:rgb(66.299438%,11.799622%,13.299561%);fill-opacity:1;" d="M 41.730469 118.25 C 51.972656 115.375 61.601563 110.433594 70.027344 103.953125 C 70 105.566406 70.035156 107.179688 70 108.792969 C 65.136719 114.269531 59.203125 118.660156 53.167969 122.757813 C 51.527344 123.769531 50.03125 125.144531 48.09375 125.550781 C 45.746094 126.171875 43.25 125.679688 41.078125 124.6875 C 39.816406 124.121094 38.425781 123.535156 37.609375 122.359375 C 37.066406 121.617188 37.46875 120.628906 38.121094 120.109375 C 39.160156 119.226563 40.425781 118.617188 41.730469 118.25 "/>
<path style=" stroke:none;fill-rule:nonzero;fill:rgb(66.299438%,11.799622%,13.299561%);fill-opacity:1;" d="M 325.046875 107.058594 C 326.785156 105.390625 329.089844 104.210938 331.535156 104.191406 C 333.496094 104.085938 335.640625 104.605469 336.953125 106.164063 C 338.457031 107.886719 338.769531 110.285156 338.6875 112.488281 C 338.683594 116.421875 338.679688 120.355469 338.6875 124.292969 C 336.609375 124.296875 334.53125 124.289063 332.453125 124.296875 C 332.441406 120.148438 332.492188 116.003906 332.429688 111.859375 C 332.417969 110.515625 331.96875 108.789063 330.488281 108.40625 C 328.210938 107.851563 326.066406 109.65625 325.066406 111.550781 C 325.011719 115.792969 325.054688 120.042969 325.046875 124.292969 C 323.03125 124.296875 321.015625 124.292969 319.003906 124.292969 C 319.003906 117.730469 319.003906 111.171875 319.003906 104.609375 C 321.015625 104.609375 323.03125 104.605469 325.046875 104.609375 C 325.039063 105.425781 325.039063 106.242188 325.046875 107.058594 "/>
<path style=" stroke:none;fill-rule:nonzero;fill:rgb(66.299438%,11.799622%,13.299561%);fill-opacity:1;" d="M 357.328125 104.609375 C 359.855469 104.613281 362.382813 104.597656 364.90625 104.617188 C 362.394531 107.75 359.8125 110.824219 357.351563 113.992188 C 357.84375 115.019531 358.710938 115.855469 359.347656 116.8125 C 361.230469 119.351563 363.109375 121.886719 365 124.417969 C 362.578125 124.394531 360.160156 124.417969 357.738281 124.40625 C 355.183594 120.964844 352.585938 117.554688 349.984375 114.152344 C 352.464844 110.996094 354.882813 107.789063 357.328125 104.609375 "/>
<g clip-path="url(#clip1)" clip-rule="nonzero">
<path style=" stroke:none;fill-rule:nonzero;fill:rgb(66.299438%,11.799622%,13.299561%);fill-opacity:1;" d="M 63.046875 121.355469 C 65.457031 119.8125 67.890625 118.261719 70.027344 116.347656 C 69.980469 119.070313 70.09375 121.796875 70.140625 124.519531 C 70.035156 126.484375 68.421875 128 66.652344 128.617188 C 64.105469 129.511719 61.34375 129.386719 58.691406 129.140625 C 57.222656 128.910156 55.625 128.902344 54.347656 128.042969 C 53.90625 127.820313 53.980469 127.300781 53.964844 126.894531 C 54.394531 126.488281 54.816406 126.066406 55.355469 125.804688 C 58.007813 124.480469 60.519531 122.902344 63.046875 121.355469 "/>
</g>
</g>
</svg>
